<mxfile host="www.draw.io" modified="2020-02-13T12:20:07.590Z" agent="Mozilla/5.0 (Windows NT 10.0; Win64; x64) AppleWebKit/537.36 (KHTML, like Gecko) Chrome/80.0.3987.100 Safari/537.36" etag="qKR6W_n0hL0Q0Y126CbG" version="12.7.0" type="github">
  <diagram id="dHluvIDfJI8eCWZC6_ZO" name="第1頁">
    <mxGraphModel dx="1550" dy="787" grid="1" gridSize="10" guides="1" tooltips="1" connect="1" arrows="1" fold="1" page="1" pageScale="1" pageWidth="1169" pageHeight="827" math="0" shadow="0" extFonts="Noto Sans TC^https://fonts.googleapis.com/css?family=Noto+Sans+TC|Noto Sans^https://fonts.googleapis.com/css?family=Noto+Sans|Noto Sans CJK^https://fonts.googleapis.com/css?family=Noto+Sans+CJK">
      <root>
        <mxCell id="0"/>
        <mxCell id="1" parent="0"/>
        <mxCell id="3nu4yQQIkdFOfvOMgzIU-42" value="" style="rounded=0;whiteSpace=wrap;html=1;fillColor=#fff2cc;strokeColor=#d6b656;" vertex="1" parent="1">
          <mxGeometry x="740" y="30" width="420" height="460" as="geometry"/>
        </mxCell>
        <mxCell id="3nu4yQQIkdFOfvOMgzIU-41" value="" style="rounded=0;whiteSpace=wrap;html=1;fillColor=#fff2cc;strokeColor=#d6b656;" vertex="1" parent="1">
          <mxGeometry x="25" y="30" width="365" height="570" as="geometry"/>
        </mxCell>
        <mxCell id="3nu4yQQIkdFOfvOMgzIU-38" value="" style="rounded=0;whiteSpace=wrap;html=1;fillColor=#fff2cc;strokeColor=#d6b656;" vertex="1" parent="1">
          <mxGeometry x="400" y="30" width="330" height="280" as="geometry"/>
        </mxCell>
        <UserObject label="產品資料" id="3nu4yQQIkdFOfvOMgzIU-4">
          <mxCell style="rounded=1;whiteSpace=wrap;html=1;fillColor=#dae8fc;strokeColor=#6c8ebf;fontFamily=Noto Sans TC;fontSize=14;" vertex="1" parent="1">
            <mxGeometry x="890" y="410" width="120" height="60" as="geometry"/>
          </mxCell>
        </UserObject>
        <mxCell id="3nu4yQQIkdFOfvOMgzIU-32" style="edgeStyle=orthogonalEdgeStyle;rounded=0;orthogonalLoop=1;jettySize=auto;html=1;" edge="1" parent="1" source="3nu4yQQIkdFOfvOMgzIU-19" target="3nu4yQQIkdFOfvOMgzIU-4">
          <mxGeometry relative="1" as="geometry"/>
        </mxCell>
        <UserObject label="單位維護" id="3nu4yQQIkdFOfvOMgzIU-19">
          <mxCell style="rounded=1;whiteSpace=wrap;html=1;fillColor=#dae8fc;strokeColor=#6c8ebf;fontFamily=Noto Sans TC;fontSize=14;" vertex="1" parent="1">
            <mxGeometry x="890" y="250" width="120" height="60" as="geometry"/>
          </mxCell>
        </UserObject>
        <mxCell id="3nu4yQQIkdFOfvOMgzIU-8" value="" style="edgeStyle=orthogonalEdgeStyle;rounded=0;orthogonalLoop=1;jettySize=auto;html=1;" edge="1" parent="1" source="3nu4yQQIkdFOfvOMgzIU-2" target="3nu4yQQIkdFOfvOMgzIU-7">
          <mxGeometry relative="1" as="geometry"/>
        </mxCell>
        <mxCell id="3nu4yQQIkdFOfvOMgzIU-12" style="edgeStyle=orthogonalEdgeStyle;rounded=0;orthogonalLoop=1;jettySize=auto;html=1;entryX=0.603;entryY=0.013;entryDx=0;entryDy=0;entryPerimeter=0;" edge="1" parent="1" source="3nu4yQQIkdFOfvOMgzIU-2" target="3nu4yQQIkdFOfvOMgzIU-9">
          <mxGeometry relative="1" as="geometry"/>
        </mxCell>
        <mxCell id="3nu4yQQIkdFOfvOMgzIU-17" style="edgeStyle=orthogonalEdgeStyle;rounded=0;orthogonalLoop=1;jettySize=auto;html=1;entryX=0.5;entryY=1;entryDx=0;entryDy=0;" edge="1" parent="1" source="3nu4yQQIkdFOfvOMgzIU-2" target="3nu4yQQIkdFOfvOMgzIU-13">
          <mxGeometry relative="1" as="geometry"/>
        </mxCell>
        <mxCell id="3nu4yQQIkdFOfvOMgzIU-18" style="edgeStyle=orthogonalEdgeStyle;rounded=0;orthogonalLoop=1;jettySize=auto;html=1;entryX=0.5;entryY=1;entryDx=0;entryDy=0;" edge="1" parent="1" source="3nu4yQQIkdFOfvOMgzIU-2" target="3nu4yQQIkdFOfvOMgzIU-15">
          <mxGeometry relative="1" as="geometry"/>
        </mxCell>
        <UserObject label="人脈池" id="3nu4yQQIkdFOfvOMgzIU-2">
          <mxCell style="rounded=1;whiteSpace=wrap;html=1;fillColor=#dae8fc;strokeColor=#6c8ebf;fontFamily=Noto Sans TC;fontSize=14;" vertex="1" parent="1">
            <mxGeometry x="130" y="370" width="120" height="60" as="geometry"/>
          </mxCell>
        </UserObject>
        <mxCell id="3nu4yQQIkdFOfvOMgzIU-11" style="edgeStyle=orthogonalEdgeStyle;rounded=0;orthogonalLoop=1;jettySize=auto;html=1;entryX=0.583;entryY=1.04;entryDx=0;entryDy=0;entryPerimeter=0;" edge="1" parent="1" source="3nu4yQQIkdFOfvOMgzIU-7" target="3nu4yQQIkdFOfvOMgzIU-9">
          <mxGeometry relative="1" as="geometry"/>
        </mxCell>
        <UserObject label="員工資料" id="3nu4yQQIkdFOfvOMgzIU-7">
          <mxCell style="rounded=1;whiteSpace=wrap;html=1;fillColor=#dae8fc;strokeColor=#6c8ebf;fontFamily=Noto Sans TC;fontSize=14;" vertex="1" parent="1">
            <mxGeometry x="130" y="520" width="120" height="60" as="geometry"/>
          </mxCell>
        </UserObject>
        <mxCell id="3nu4yQQIkdFOfvOMgzIU-14" value="" style="edgeStyle=orthogonalEdgeStyle;rounded=0;orthogonalLoop=1;jettySize=auto;html=1;" edge="1" parent="1" source="3nu4yQQIkdFOfvOMgzIU-1" target="3nu4yQQIkdFOfvOMgzIU-13">
          <mxGeometry relative="1" as="geometry"/>
        </mxCell>
        <mxCell id="3nu4yQQIkdFOfvOMgzIU-16" style="edgeStyle=orthogonalEdgeStyle;rounded=0;orthogonalLoop=1;jettySize=auto;html=1;" edge="1" parent="1" source="3nu4yQQIkdFOfvOMgzIU-1" target="3nu4yQQIkdFOfvOMgzIU-15">
          <mxGeometry relative="1" as="geometry"/>
        </mxCell>
        <UserObject label="公司資料" id="3nu4yQQIkdFOfvOMgzIU-1">
          <mxCell style="rounded=1;whiteSpace=wrap;html=1;fillColor=#dae8fc;strokeColor=#6c8ebf;fontFamily=Noto Sans TC;fontSize=14;" vertex="1" parent="1">
            <mxGeometry x="130" y="70" width="120" height="60" as="geometry"/>
          </mxCell>
        </UserObject>
        <UserObject label="客戶資料" id="3nu4yQQIkdFOfvOMgzIU-13">
          <mxCell style="rounded=1;whiteSpace=wrap;html=1;fillColor=#dae8fc;strokeColor=#6c8ebf;fontFamily=Noto Sans TC;fontSize=14;" vertex="1" parent="1">
            <mxGeometry x="40" y="210" width="120" height="60" as="geometry"/>
          </mxCell>
        </UserObject>
        <UserObject label="平台用戶" id="3nu4yQQIkdFOfvOMgzIU-9">
          <mxCell style="rounded=1;whiteSpace=wrap;html=1;fillColor=#dae8fc;strokeColor=#6c8ebf;fontFamily=Noto Sans TC;fontSize=14;" vertex="1" parent="1">
            <mxGeometry x="260" y="440" width="120" height="60" as="geometry"/>
          </mxCell>
        </UserObject>
        <UserObject label="供應商資料&lt;br&gt;經銷、第三方" id="3nu4yQQIkdFOfvOMgzIU-15">
          <mxCell style="rounded=1;whiteSpace=wrap;html=1;fillColor=#dae8fc;strokeColor=#6c8ebf;fontFamily=Noto Sans TC;fontSize=14;" vertex="1" parent="1">
            <mxGeometry x="220" y="210" width="120" height="60" as="geometry"/>
          </mxCell>
        </UserObject>
        <mxCell id="3nu4yQQIkdFOfvOMgzIU-26" value="" style="edgeStyle=orthogonalEdgeStyle;rounded=0;orthogonalLoop=1;jettySize=auto;html=1;" edge="1" parent="1" source="3nu4yQQIkdFOfvOMgzIU-21" target="3nu4yQQIkdFOfvOMgzIU-25">
          <mxGeometry relative="1" as="geometry"/>
        </mxCell>
        <mxCell id="3nu4yQQIkdFOfvOMgzIU-31" style="edgeStyle=orthogonalEdgeStyle;rounded=0;orthogonalLoop=1;jettySize=auto;html=1;" edge="1" parent="1" source="3nu4yQQIkdFOfvOMgzIU-21" target="3nu4yQQIkdFOfvOMgzIU-4">
          <mxGeometry relative="1" as="geometry">
            <Array as="points">
              <mxPoint x="810" y="360"/>
              <mxPoint x="950" y="360"/>
            </Array>
          </mxGeometry>
        </mxCell>
        <UserObject label="幣別維護" id="3nu4yQQIkdFOfvOMgzIU-21">
          <mxCell style="rounded=1;whiteSpace=wrap;html=1;fillColor=#dae8fc;strokeColor=#6c8ebf;fontFamily=Noto Sans TC;fontSize=14;" vertex="1" parent="1">
            <mxGeometry x="750" y="250" width="120" height="60" as="geometry"/>
          </mxCell>
        </UserObject>
        <UserObject label="匯率維護" id="3nu4yQQIkdFOfvOMgzIU-25">
          <mxCell style="rounded=1;whiteSpace=wrap;html=1;fillColor=#dae8fc;strokeColor=#6c8ebf;fontFamily=Noto Sans TC;fontSize=14;" vertex="1" parent="1">
            <mxGeometry x="750" y="140" width="120" height="60" as="geometry"/>
          </mxCell>
        </UserObject>
        <mxCell id="3nu4yQQIkdFOfvOMgzIU-34" style="edgeStyle=orthogonalEdgeStyle;rounded=0;orthogonalLoop=1;jettySize=auto;html=1;entryX=0.5;entryY=0;entryDx=0;entryDy=0;" edge="1" parent="1" source="3nu4yQQIkdFOfvOMgzIU-29" target="3nu4yQQIkdFOfvOMgzIU-4">
          <mxGeometry relative="1" as="geometry">
            <Array as="points">
              <mxPoint x="1090" y="360"/>
              <mxPoint x="950" y="360"/>
            </Array>
          </mxGeometry>
        </mxCell>
        <UserObject label="倉庫儲位" id="3nu4yQQIkdFOfvOMgzIU-29">
          <mxCell style="rounded=1;whiteSpace=wrap;html=1;fillColor=#dae8fc;strokeColor=#6c8ebf;fontFamily=Noto Sans TC;fontSize=14;" vertex="1" parent="1">
            <mxGeometry x="1030" y="250" width="120" height="60" as="geometry"/>
          </mxCell>
        </UserObject>
        <mxCell id="3nu4yQQIkdFOfvOMgzIU-37" value="" style="group" vertex="1" connectable="0" parent="1">
          <mxGeometry x="430" y="70" width="270" height="200" as="geometry"/>
        </mxCell>
        <UserObject label="國別、代碼" id="3nu4yQQIkdFOfvOMgzIU-22">
          <mxCell style="rounded=1;whiteSpace=wrap;html=1;fillColor=#dae8fc;strokeColor=#6c8ebf;fontFamily=Noto Sans TC;fontSize=14;" vertex="1" parent="3nu4yQQIkdFOfvOMgzIU-37">
            <mxGeometry x="70" width="120" height="60" as="geometry"/>
          </mxCell>
        </UserObject>
        <UserObject label="語言、代碼" id="3nu4yQQIkdFOfvOMgzIU-23">
          <mxCell style="rounded=1;whiteSpace=wrap;html=1;fillColor=#dae8fc;strokeColor=#6c8ebf;fontFamily=Noto Sans TC;fontSize=14;" vertex="1" parent="3nu4yQQIkdFOfvOMgzIU-37">
            <mxGeometry y="140" width="120" height="60" as="geometry"/>
          </mxCell>
        </UserObject>
        <mxCell id="3nu4yQQIkdFOfvOMgzIU-35" style="edgeStyle=orthogonalEdgeStyle;rounded=0;orthogonalLoop=1;jettySize=auto;html=1;entryX=0.5;entryY=0;entryDx=0;entryDy=0;" edge="1" parent="3nu4yQQIkdFOfvOMgzIU-37" source="3nu4yQQIkdFOfvOMgzIU-22" target="3nu4yQQIkdFOfvOMgzIU-23">
          <mxGeometry relative="1" as="geometry"/>
        </mxCell>
        <UserObject label="電話、手機" id="3nu4yQQIkdFOfvOMgzIU-24">
          <mxCell style="rounded=1;whiteSpace=wrap;html=1;fillColor=#dae8fc;strokeColor=#6c8ebf;fontFamily=Noto Sans TC;fontSize=14;" vertex="1" parent="3nu4yQQIkdFOfvOMgzIU-37">
            <mxGeometry x="150" y="140" width="120" height="60" as="geometry"/>
          </mxCell>
        </UserObject>
        <mxCell id="3nu4yQQIkdFOfvOMgzIU-36" style="edgeStyle=orthogonalEdgeStyle;rounded=0;orthogonalLoop=1;jettySize=auto;html=1;" edge="1" parent="3nu4yQQIkdFOfvOMgzIU-37" source="3nu4yQQIkdFOfvOMgzIU-22" target="3nu4yQQIkdFOfvOMgzIU-24">
          <mxGeometry relative="1" as="geometry"/>
        </mxCell>
      </root>
    </mxGraphModel>
  </diagram>
</mxfile>
